<?xml version="1.0" encoding="utf-8"?>
<!-- Generator: Adobe Illustrator 19.2.1, SVG Export Plug-In . SVG Version: 6.00 Build 0)  -->
<svg version="1.1" id="Layer_1" xmlns="http://www.w3.org/2000/svg" xmlns:xlink="http://www.w3.org/1999/xlink" x="0px" y="0px"
	 width="256px" height="256px" viewBox="0 0 256 256" enable-background="new 0 0 256 256" xml:space="preserve">
<g id="g3">
	<path id="path5" fill="#E4212B" d="M98.31,159.21c-9.53-6.14-22.45-7.21-43.3-1.43c-22.23,5.22-29.64,8.57-39.37,1.85
		c-3.74-3.3-5.08-8.62-4.08-16.28c2.32-12.48,8.6-24.5,19.74-37.82c6.22-6.93,11.99-12.88,19.61-15.27c5.84-1.5,5.29,3.09,4.59,3.75
		c-0.75,0-2,0.12-2.97,0.75c-0.79,0.61-2.94,2.58-3.06,5.22c-0.17,4.05,4.03,3.21,5.83,0.98c1.95-2.51,4.83-7.31,2.56-11.78
		c-0.95-1.59-2.59-2.69-4.63-3.07c-6.98-0.4-13.47,2.93-19.47,6.6c-13.11,9.11-23.6,21.73-29.54,35.55
		c-3.42,8.34-6.52,20.28-1.88,30c3.59,6.74,11.04,10.33,19.93,9.58c6.23-0.66,13.77-2.67,18.84-3.89
		c5.07-1.22,31.03-10.14,39.55,5.39c0,0,2.84-5.5,9.92-5.62c5.83-0.54,14.23,1.69,20.35,6.18
		C108.91,166.85,103.13,162.33,98.31,159.21L98.31,159.21z"/>
	<path id="path7" fill="#E4212B" d="M57.65,107.1c-4.85-3.18-14.61,2.9-22.43,13.35c-7.15,9.37-10.23,20.26-6.87,25.29
		c5,5.92,14.27-2.69,18.21-7.31l0.51-0.54c2.68-2.88,4.75-6.35,6.76-9.67c0,0,1.84-3.04,1.93-3.19c1.14-0.21,2.51-0.54,4.06-0.98
		c-0.02,0.07-5.92,9.98-5.31,14.89c0.19,1.5,0.04,6.98,5.39,8.64c7.13,1.2,12.82-4.33,17.85-9.25c0,0,0.86-0.82,1.34-1.29
		c-0.12,0.49-0.28,1.14-0.28,1.14c-2.09,7.26,0.73,8.78,2.49,9.35c5.32,1.55,11.68-6.18,11.7-6.18c-0.16,2.43-0.65,4.45,1.92,6.06
		c2.42,0.87,4.87-0.45,6.74-1.7c6.71-4.73,12.12-12.13,16.49-18.53h-2.79c-0.03,0-6.87,9.92-11.32,12.07
		c-0.01,0-0.82,0.42-1.28,0.09c-0.58-0.49-0.35-1.51,0.01-2.24c0.02-0.05,17.15-29.76,17.15-29.76h-8.09c0,0-0.88,1.43-0.96,1.52
		c-0.05-0.05-0.18-0.29-0.27-0.41c-5.01-6.93-16.36,3.73-24.9,16.1c-3.29,4.75-7.48,10.11-11.82,13.97c0,0-6.43,5.9-9.18,1.66
		c-1-1.78-0.7-4.38-0.13-6.09c3.2-9.11,8.71-17.38,14.99-22.37c1.77-1.38,3.7-1.78,4.65-1.19c0.91,0.54,1.06,1.87,0.48,2.79
		c-1.46-0.05-2.63,0.4-3.58,1.38c-1.88,1.97-2.53,3.86-1.93,5.64c2.9,4.12,8.67-4.03,8.39-8.99c-0.1-1.78-1.05-3.47-2.47-4.29
		c-2.11-1.26-5.33-0.94-7.42,0.07c-2.79,1.05-7.21,4.73-9.79,7.59c-3.25,3.58-8.82,7.56-10.56,7.12
		C57.9,120.33,62.6,110.71,57.65,107.1L57.65,107.1z M96.65,121.34c1.57-2.18,6.15-8.01,7.27-8.99c3.75-3.3,5.26-1.85,5.39-0.82
		c-3.5,6.28-7.64,13.47-11.53,19.93c0.01-0.02-1.22,1.85-1.22,1.85c-1.72,2.62-3.45,4.87-6.27,6.44c-0.4,0.12-1.07,0.16-1.51-0.16
		c-0.53-0.35-0.74-0.94-0.68-1.55C88.27,136.03,90.32,129.87,96.65,121.34L96.65,121.34z M52.65,125.11c0,0-0.07,0.21-0.11,0.28
		c-0.01,0-3.53,5.74-3.53,5.74c-2.12,2.83-4.77,6.39-8.09,8.1c-0.98,0.33-2.34,0.54-3.03-0.33c-1.47-1.76-0.71-4.19-0.1-6.16
		l0.22-0.7c1.76-4.78,4.55-8.99,7.27-12.9c0.03-0.02,0.11-0.05,0.14-0.05c0.01,0.02,0.02,0.02,0.02,0.07c1.71,3.28,4.91,4.8,7.3,5.5
		c0.01,0,0.03,0.02,0.03,0.07C52.78,124.81,52.74,124.9,52.65,125.11L52.65,125.11z M55.98,118.34c-0.02,0.05-1.57,3.61-1.57,3.61
		c-0.22,0.19-0.58,0.09-0.99,0l-0.7-0.12c-2.19-0.68-3.84-2.13-4.34-3.86c-0.7-3.37,2.18-6.02,3.45-6.98
		c1.22-0.84,3.11-1.29,4.21-0.42c0.68,0.8,0.94,1.83,0.94,2.95C56.98,115.04,56.51,116.75,55.98,118.34L55.98,118.34z"/>
	<path id="path9" fill="#E4212B" d="M158.23,129.21c-0.78-1.69-2.63-2.76-4.6-2.65c-6.41,0.59-12.67,5.86-15.97,13.42
		c-1.73,3.89-2.67,7.1-3.29,12.2c1.99-2.29,6.06-6.06,10.67-8.13c0,0,0.63-4.89,3.83-9.25c1.21-1.8,3.63-4.71,6.36-3.94
		c2.38,0.8,1.54,7.38-1.62,13.75c-2.34,4.68-5.92,9.37-9.54,12.6c-3.2,2.72-7.94,6-12.08,3.47c-2.61-1.54-3.94-4.78-3.66-8.95
		c1.25-11.83,6.63-21.9,14.33-33.37c7.94-10.66,16.7-21.59,28.5-27.42c2.41-1.22,4.63-1.5,6.56-0.75c0,0-11.07,6.09-16.35,17.35
		c-1.34,2.86-3.21,6.72-1.33,10.14c0.98,1.78,2.73,1.92,4.13,1.83c6.47-1.5,10.65-7.54,14.07-13.07c1.98-4.19,3.74-8.36,3.74-13
		c0-0.56-0.03-1.31-0.08-1.87c3.09-1.64,9.43,1.26,9.43,1.26c4.95,1.64,15.5,9.72,19.06,11.26c1.74-2.01,4.59-5.06,6.19-6.58
		l-2.32-1.43c-3.72-2.27-7.66-4.43-11.53-6.56c-8.79-4.8-15.95-3.11-19.59-1.8c-1.43,0.51-2.74,0.96-2.74,0.96
		c-2.7-2.95-7.14-2.67-10.4-1.87c-11.75,3.37-22.66,11.59-34.35,25.85c-8.6,11.17-13.93,20.82-16.77,30.35
		c-2.19,6.42-2.86,15.85,2.49,21.45c4.55,4.75,10.58,3.72,14.83,2.01c9.22-4.54,17.52-14.33,21.65-25.6
		C158.84,137.55,159.95,132.82,158.23,129.21L158.23,129.21z M179.44,93.92c-1.22,14-12.11,22.23-14.8,22.88
		c-1.63,0.33-4.42-0.4-1.93-6.28c3.66-7.92,9.91-14.64,16.62-18.08C179.49,93.03,179.49,93.4,179.44,93.92L179.44,93.92z"/>
	<path id="path11" fill="#E4212B" d="M244.02,95.7c-5.86,3.33-11.93,5.48-19.27,4.73c-2.04,2.3-4.02,4.66-5.85,7.1
		c10.31,2.62,21.25-3.21,27.34-8.76c6.45-5.6,9.76-12.65,9.76-12.65S251.16,91.65,244.02,95.7L244.02,95.7z"/>
	<polygon id="polygon13" fill="#E4212B" points="133.35,107.36 125.67,107.36 121.34,114.4 129.02,114.4 	"/>
	<path id="path15" fill="#E4212B" d="M224.71,159.86c-0.83,0.56-1.99,0.13-1.55-1.16c1.08-3.28,5.38-9.96,5.38-9.96l11.97-21.22
		h-8.2c-0.39,0.64-1.22,2.11-1.22,2.11c-0.38-0.63-1.51-2.04-1.98-2.34c-2-1.27-4.94-0.67-6.97,0.48
		c-8.81,5.15-15.24,15.33-20.31,23.27c0,0-5.34,8.83-8.3,9.48c-2.31,0.19-2.07-2.93-1.97-3.65c0.89-5.25,2.97-10.23,5.06-14.75
		c4.26-2.95,9.11-6.81,13.53-11.05c9.58-9.16,17.66-19.53,18.84-21.85c0,0-1.28,0.26-2.79,0.3c-7.37,10.28-22.45,25.22-27.02,27.45
		c2.03-4.87,15.11-28.13,26.25-39.25l1.75-1.69c2.71-2.65,5.52-5.36,7.71-5.81c0.23-0.02,0.53,0,0.79,0.54
		c0.1,2.06-0.67,3.58-1.55,5.32l-1.23,2.53c0,0,1.75-0.33,2.89-0.7c1.33-2.5,2.81-5.32,2.26-8.66c-0.18-1.08-0.96-1.9-1.98-2.08
		c-3.32-0.63-6.94,1.83-9.86,3.82l-0.12,0.07c-14.98,11.73-27.62,28.64-38.68,51.73c-0.8,0.61-3.9,1.33-4.42,0.98
		c1.09-2.25,2.47-5.27,3.15-8.55c0.12-0.94,0.23-1.9,0.23-2.83c0-2.02-0.48-3.91-2.29-5.22c-2.12-1.05-4.73-0.56-6.5,0.23
		c-7.9,3.28-13.81,11.38-18.07,18.06c-2.29,4.24-4.58,8.78-5.21,13.98c-0.45,4.07,0.46,6.7,2.78,8.01c2.38,1.22,5.38-0.05,6.56-0.66
		c8.01-4.22,13.6-12.67,18.01-20.4c0.18-0.02,2.58-0.09,4.4-0.56c0.02,0,0.03,0,0.07,0.02c-0.1,0.35-1.05,3.16-1.05,3.16
		c-2.79,8.2-4.09,13.77-1.45,17.07c3.77,4.66,10.02-0.16,15.1-6.53c-1.09,7.63,2.87,8.83,5.88,8.24c3.46-0.94,7.33-4.64,9.12-6.53
		c-0.58,2.22-0.42,6.21,2.73,6.6c2.16,0.4,3.78-0.78,5.65-1.78c6.71-3.65,14.74-15.83,16.83-19.35h-2.73
		C233.23,151.2,229.46,157.07,224.71,159.86L224.71,159.86z M164.48,159.05c-0.43-0.63-0.57-1.32-0.58-2.07
		c-0.08-4.59,4.86-12.82,8.35-17.3c0.01,0,0.01,0,0.01,0c1.46,3.2,4.77,5.26,6.77,6.12C176.54,151.33,168.03,163.17,164.48,159.05
		L164.48,159.05z M180.42,143.33c-0.24,0.16-4.41-1.24-5.22-5.1c-0.68-3.33,1.61-5.93,3.82-7.24c0.95-0.75,2.38-1.01,3.44-0.63
		c0.98,0.66,1.24,1.83,1.24,3.09c0,0.77-0.1,1.57-0.19,2.3c0,0-0.02,0.14-0.02,0.16C182.8,138.51,181.73,141.06,180.42,143.33
		L180.42,143.33z M213.9,157.57c0,0-0.79,0.7-0.79,0.7c-1.13,1.01-2.28,2.08-3.68,1.54c-0.39-0.14-0.66-0.66-0.72-1.05
		c-0.06-2.88,1.23-5.55,2.49-8.15l0.32-0.68c3.62-6.04,7.82-13.16,14-18.1c1.04-0.75,2.17-1.38,3.36-0.89
		c0.27,0.26,0.59,0.7,0.59,1.15c0,0.14-0.13,0.52-0.2,0.63c-1.73,2.79-3.37,5.72-4.97,8.53C221.18,146.8,217.95,152.54,213.9,157.57
		L213.9,157.57z"/>
</g>
</svg>
