<?xml version="1.0" encoding="utf-8"?>
<!-- Generator: Adobe Illustrator 19.2.1, SVG Export Plug-In . SVG Version: 6.00 Build 0)  -->
<svg version="1.1" id="Layer_1" xmlns="http://www.w3.org/2000/svg" xmlns:xlink="http://www.w3.org/1999/xlink" x="0px" y="0px"
	 width="256px" height="256px" viewBox="0 0 256 256" style="enable-background:new 0 0 256 256;" xml:space="preserve">
<style type="text/css">
	.st0{fill:#010101;}
</style>
<path class="st0" d="M185.6,10.56c-22.27,0-43.65,10.37-57.6,26.75c-13.95-16.38-35.33-26.75-57.6-26.75
	C30.98,10.56,0,41.54,0,80.96c0,48.38,43.52,87.81,109.44,147.71L128,245.44l18.56-16.9C212.48,168.77,256,129.34,256,80.96
	C256,41.54,225.02,10.56,185.6,10.56z M129.28,209.6l-1.28,1.28l-1.28-1.28C65.79,154.43,25.6,117.95,25.6,80.96
	c0-25.6,19.2-44.8,44.8-44.8c19.71,0,38.91,12.67,45.7,30.21h23.94c6.66-17.54,25.86-30.21,45.57-30.21c25.6,0,44.8,19.2,44.8,44.8
	C230.4,117.95,190.21,154.43,129.28,209.6z"/>
</svg>
