<?xml version="1.0" encoding="utf-8"?>
<!-- Generator: Adobe Illustrator 19.2.1, SVG Export Plug-In . SVG Version: 6.00 Build 0)  -->
<svg version="1.1" id="Layer_1" xmlns="http://www.w3.org/2000/svg" xmlns:xlink="http://www.w3.org/1999/xlink" x="0px" y="0px"
	 width="256px" height="256px" viewBox="0 0 256 256" enable-background="new 0 0 256 256" xml:space="preserve">
<path fill="#020202" d="M256,156.32H0V99.68h256V156.32z M14.72,143.79h8.75v-9.01h4.32c7.84,0,13.6-3.95,13.6-11.36v-0.11
	c0-6.99-5.17-11.09-13.12-11.09H14.72V143.79z M23.47,127.89v-8.37h4.11c3.15,0,5.07,1.44,5.07,4.16v0.11
	c0,2.51-1.92,4.11-5.01,4.11L23.47,127.89L23.47,127.89z M60.96,144.43c9.76,0,17.07-7.36,17.07-16.43v-0.11
	c0-9.07-7.2-16.32-16.96-16.32S44,118.93,44,128v0.11C44,137.17,51.25,144.43,60.96,144.43z M61.07,136.53
	c-4.8,0-8.05-3.95-8.05-8.53v-0.11c0-4.59,3.2-8.43,8-8.43c4.85,0,8.11,4,8.11,8.53v0.11C69.12,132.64,65.92,136.53,61.07,136.53z
	 M94.77,144.32c7.68,0,12.8-3.84,12.8-10.29v-0.11c0-5.92-4.53-8.27-11.79-9.87c-4.37-1.01-5.44-1.6-5.44-3.04v-0.11
	c0-1.12,1.07-2.03,3.15-2.03c2.77,0,5.97,1.07,8.85,3.09l4.37-6.19c-3.41-2.72-7.63-4.21-13.01-4.21c-7.57,0-12.21,4.27-12.21,10.13
	v0.11c0,6.51,5.17,8.37,11.89,9.92c4.27,1.01,5.33,1.71,5.33,3.04v0.11c0,1.33-1.28,2.19-3.63,2.19c-3.63,0-7.15-1.28-10.24-3.79
	L80,139.09C83.89,142.56,89.17,144.32,94.77,144.32z M123.79,144.32c7.68,0,12.8-3.84,12.8-10.29v-0.11c0-5.92-4.53-8.27-11.79-9.87
	c-4.37-1.01-5.44-1.6-5.44-3.04v-0.11c0-1.12,1.01-2.03,3.15-2.03c2.77,0,5.97,1.07,8.85,3.09l4.37-6.19
	c-3.41-2.72-7.63-4.21-13.01-4.21c-7.57,0-12.21,4.27-12.21,10.13v0.11c0,6.51,5.17,8.37,11.89,9.92c4.27,1.01,5.33,1.71,5.33,3.04
	v0.11c0,1.33-1.28,2.19-3.63,2.19c-3.68,0-7.15-1.28-10.24-3.79l-4.85,5.81C112.85,142.56,118.19,144.32,123.79,144.32z
	 M140.96,143.79h8.8v-31.57h-8.8V143.79z M155.57,143.79h16.32c7.52,0,11.95-3.31,11.95-8.69v-0.11c0-4.27-2.45-6.45-6.29-7.73
	c2.77-1.23,4.85-3.41,4.85-7.04v-0.11c0-2.19-0.75-3.84-2.03-5.12c-1.87-1.87-4.64-2.83-8.64-2.83h-16.21L155.57,143.79
	L155.57,143.79z M164.11,124.8v-5.55h5.71c2.61,0,3.95,1.01,3.95,2.72v0.11c0,1.87-1.49,2.77-4.16,2.77
	C169.6,124.8,164.11,124.8,164.11,124.8z M164.11,136.75v-5.81h6.67c2.93,0,4.27,1.12,4.27,2.83v0.11c0,1.87-1.55,2.88-4.21,2.88
	C170.83,136.75,164.11,136.75,164.11,136.75z M187.84,143.79h24.05v-7.68h-15.31v-23.95h-8.75
	C187.84,112.16,187.84,143.79,187.84,143.79z M215.68,143.79h25.65v-7.47h-16.96v-5.01h15.15v-6.93h-15.15v-4.8h16.75v-7.47h-25.44
	V143.79L215.68,143.79z"/>
</svg>
